<svg xmlns="http://www.w3.org/2000/svg" viewBox="0 0 900 560">
  <defs>
    <radialGradient id="bg" cx="50%" cy="38%" r="80%">
      <stop offset="0" stop-color="#3a2117"/>
      <stop offset="1" stop-color="#101018"/>
    </radialGradient>
    <linearGradient id="warm" x1="0" x2="1">
      <stop offset="0" stop-color="#ff5b22"/>
      <stop offset="1" stop-color="#ffb13d"/>
    </linearGradient>
  </defs>
  <rect width="900" height="560" rx="44" fill="url(#bg)"/>
  <circle cx="452" cy="298" r="183" fill="#f7efe4"/>
  <circle cx="452" cy="298" r="136" fill="#fffaf1"/>
  <path d="M320 305c50-60 159-66 233-9 33 25 77 15 102-7 11 92-77 169-184 163-100-5-176-67-151-147z" fill="url(#warm)"/>
  <g fill="#7a341a">
    <circle cx="398" cy="273" r="18"/>
    <circle cx="484" cy="274" r="16"/>
    <circle cx="544" cy="333" r="17"/>
  </g>
  <path d="M214 438c88-38 367-37 472 2" fill="none" stroke="#ffffff" stroke-opacity=".18" stroke-width="24" stroke-linecap="round"/>
  <text x="450" y="88" text-anchor="middle" fill="#fff" font-family="Arial, sans-serif" font-size="54" font-weight="900">PLAT MAISON</text>
  <text x="450" y="128" text-anchor="middle" fill="#ff9f35" font-family="Arial, sans-serif" font-size="24" font-weight="700">koloogo selection</text>
</svg>
