<svg width="240" height="180" viewBox="0 0 240 180" fill="none" xmlns="http://www.w3.org/2000/svg">
  <rect width="240" height="180" rx="28" fill="#1A1423"/>
  <ellipse cx="120" cy="142" rx="82" ry="16" fill="#0F0B14" opacity="0.45"/>
  <path d="M56 82C56 51.072 84.072 26 118.5 26C152.928 26 181 51.072 181 82H56Z" fill="#F6B85B"/>
  <path d="M62 82H176C174.081 96.093 161.418 107 146 107H92C76.5825 107 63.9188 96.093 62 82Z" fill="#F2A23A"/>
  <circle cx="90" cy="50" r="3.5" fill="#FFF3D2"/>
  <circle cx="116" cy="44" r="3.5" fill="#FFF3D2"/>
  <circle cx="138" cy="54" r="3.5" fill="#FFF3D2"/>
  <circle cx="154" cy="46" r="3.5" fill="#FFF3D2"/>
  <rect x="54" y="86" width="130" height="10" rx="5" fill="#5DAA49"/>
  <path d="M58 93H182L172 102C168.967 104.73 165.032 106.242 160.95 106.242H79.05C74.9681 106.242 71.0329 104.73 68 102L58 93Z" fill="#6EC857"/>
  <rect x="48" y="96" width="144" height="16" rx="8" fill="#EFC84A"/>
  <path d="M50 114H190C190 132.778 174.778 148 156 148H84C65.2223 148 50 132.778 50 114Z" fill="#6A351B"/>
  <path d="M56 114H184C184 122.837 176.837 130 168 130H72C63.1634 130 56 122.837 56 114Z" fill="#884623"/>
  <path d="M62 130H178C176.106 142.524 165.305 152 152.5 152H87.5C74.6948 152 63.8939 142.524 62 130Z" fill="#F0A54B"/>
</svg>
