<svg width="240" height="180" viewBox="0 0 240 180" fill="none" xmlns="http://www.w3.org/2000/svg">
  <rect width="240" height="180" rx="28" fill="#1D161B"/>
  <ellipse cx="120" cy="144" rx="84" ry="16" fill="#100B0D" opacity="0.45"/>
  <path d="M84 110C84 84.5949 104.595 64 130 64C155.405 64 176 84.5949 176 110C176 117.014 174.433 123.662 171.633 129.611C163.161 140.136 150.171 147 135.5 147C108.714 147 87 125.286 87 98.5C87 94.3495 87.5215 90.3207 88.5027 86.4768C85.6398 93.4588 84 101.097 84 109V110Z" fill="#C16B2F"/>
  <path d="M80 102C80 78.2518 99.2518 59 123 59C146.748 59 166 78.2518 166 102C166 125.748 146.748 145 123 145C99.2518 145 80 125.748 80 102Z" fill="#E08A3C"/>
  <path d="M96 98C96 81.4315 109.431 68 126 68C142.569 68 156 81.4315 156 98C156 114.569 142.569 128 126 128C109.431 128 96 114.569 96 98Z" fill="#F2A95B"/>
  <circle cx="167" cy="73" r="14" fill="#F5E0BF"/>
  <circle cx="182" cy="61" r="10" fill="#F5E0BF"/>
  <circle cx="124" cy="98" r="7" fill="#9F5422"/>
  <circle cx="108" cy="89" r="6" fill="#9F5422"/>
  <circle cx="141" cy="87" r="6" fill="#9F5422"/>
</svg>
