<svg width="240" height="180" viewBox="0 0 240 180" fill="none" xmlns="http://www.w3.org/2000/svg">
  <rect width="240" height="180" rx="28" fill="#141D26"/>
  <ellipse cx="120" cy="144" rx="82" ry="16" fill="#0C1117" opacity="0.45"/>
  <path d="M154 90C154 67.3563 135.644 49 113 49C96.5248 49 82.3185 58.7148 75.7091 72.7375L55 62L61 87L42 103L69 108L66 132L83 119.734C90.2017 129.095 101.518 135 114 135C136.644 135 155 116.644 155 94C155 92.6518 154.935 91.3188 154.808 90H154Z" fill="#5CB7D9"/>
  <path d="M70 86C77.6237 70.5923 93.5195 60 112 60C137.405 60 158 80.5949 158 106C158 108.412 157.814 110.781 157.454 113.094C165.748 106.463 171 96.257 171 84.8257C171 64.7082 154.692 48.4 134.574 48.4C109.236 48.4 87.3959 62.8056 77.0738 83.8438L70 86Z" fill="#84D9F2" opacity="0.9"/>
  <circle cx="126" cy="85" r="5" fill="#10212D"/>
  <path d="M96 98C102.174 102.289 109.534 104.5 117.41 104.5C125.285 104.5 132.646 102.289 138.82 98" stroke="#10212D" stroke-width="4" stroke-linecap="round"/>
  <path d="M165 69L186 55L182 79L198 96L174 99L169 121L154 101" fill="#3E7F99"/>
</svg>
