<svg width="240" height="180" viewBox="0 0 240 180" fill="none" xmlns="http://www.w3.org/2000/svg">
  <rect width="240" height="180" rx="28" fill="#1D1613"/>
  <ellipse cx="120" cy="144" rx="84" ry="16" fill="#100C0A" opacity="0.45"/>
  <circle cx="120" cy="88" r="60" fill="#E1A54A"/>
  <circle cx="120" cy="88" r="50" fill="#CE4C32"/>
  <circle cx="86" cy="72" r="11" fill="#F8E4AF"/>
  <circle cx="134" cy="64" r="10" fill="#F8E4AF"/>
  <circle cx="154" cy="98" r="11" fill="#F8E4AF"/>
  <circle cx="100" cy="112" r="10" fill="#F8E4AF"/>
  <circle cx="128" cy="102" r="8" fill="#7CCB63"/>
  <circle cx="148" cy="74" r="7" fill="#7CCB63"/>
  <circle cx="92" cy="94" r="7" fill="#7CCB63"/>
  <circle cx="110" cy="60" r="8" fill="#A92F2F"/>
  <circle cx="158" cy="88" r="8" fill="#A92F2F"/>
  <circle cx="102" cy="84" r="8" fill="#A92F2F"/>
  <path d="M86 41L120 88L177 71C164.033 43.708 133.361 29.246 104.475 35.588C97.7374 37.0671 91.4387 39.5241 86 41Z" fill="#F5C879" opacity="0.9"/>
</svg>
