<svg width="240" height="180" viewBox="0 0 240 180" fill="none" xmlns="http://www.w3.org/2000/svg">
  <rect width="240" height="180" rx="28" fill="#141922"/>
  <ellipse cx="120" cy="144" rx="82" ry="16" fill="#0A0E14" opacity="0.45"/>
  <circle cx="120" cy="94" r="56" fill="#EDE5DA"/>
  <circle cx="120" cy="94" r="42" fill="#F8F4EE"/>
  <path d="M90 98C90 81.4315 103.431 68 120 68C136.569 68 150 81.4315 150 98C150 114.569 136.569 128 120 128C103.431 128 90 114.569 90 98Z" fill="#C76039"/>
  <circle cx="105" cy="84" r="6" fill="#78C25B"/>
  <circle cx="134" cy="90" r="7" fill="#78C25B"/>
  <circle cx="117" cy="108" r="6" fill="#F3D16D"/>
  <rect x="49" y="44" width="8" height="56" rx="4" fill="#AAB6C5"/>
  <rect x="62" y="44" width="8" height="56" rx="4" fill="#AAB6C5"/>
  <rect x="49" y="39" width="21" height="8" rx="4" fill="#AAB6C5"/>
  <rect x="176" y="41" width="8" height="58" rx="4" fill="#AAB6C5"/>
  <path d="M184 42C194.493 42 203 50.5066 203 61V99H195V61C195 54.3726 189.627 49 183 49H176V42H184Z" fill="#AAB6C5"/>
</svg>
