<svg width="240" height="180" viewBox="0 0 240 180" fill="none" xmlns="http://www.w3.org/2000/svg">
  <rect width="240" height="180" rx="28" fill="#19161F"/>
  <ellipse cx="120" cy="144" rx="84" ry="16" fill="#0E0B12" opacity="0.45"/>
  <path d="M70 116L102 58C106.193 50.3992 114.184 45.6667 122.857 45.6667C131.531 45.6667 139.521 50.3992 143.714 58L176 116C178.347 120.214 175.303 125.333 170.429 125.333H75.5714C70.6971 125.333 67.653 120.214 70 116Z" fill="#F1C16B"/>
  <path d="M87 101L104.569 69.1894C107.115 64.5815 111.961 61.7143 117.216 61.7143H127.784C133.039 61.7143 137.885 64.5815 140.431 69.1894L158 101H87Z" fill="#7CC25D"/>
  <path d="M92 110L107.178 82.6387C108.822 79.6737 111.942 77.8333 115.332 77.8333H128.668C132.058 77.8333 135.178 79.6737 136.822 82.6387L152 110H92Z" fill="#B54D34"/>
  <path d="M78 118H168C166.142 129.588 156.091 138.333 144.355 138.333H101.645C89.9088 138.333 79.8583 129.588 78 118Z" fill="#E5A84B"/>
</svg>
