<svg width="240" height="180" viewBox="0 0 240 180" fill="none" xmlns="http://www.w3.org/2000/svg">
  <rect width="240" height="180" rx="28" fill="#171A23"/>
  <ellipse cx="120" cy="144" rx="84" ry="16" fill="#0D1017" opacity="0.45"/>
  <path d="M64 122C64 84.4446 88.6243 54 119 54C149.376 54 174 84.4446 174 122H64Z" fill="#E5B253"/>
  <path d="M76 122C76 92.7289 95.6995 69 120 69C144.301 69 164 92.7289 164 122H76Z" fill="#EFC96E"/>
  <path d="M80 103C90.6858 94.3021 104.707 89 120 89C135.293 89 149.314 94.3021 160 103V122H80V103Z" fill="#6E4B2A"/>
  <path d="M80 112C92.1208 100.417 105.502 94.625 120 94.625C134.498 94.625 147.879 100.417 160 112V122H80V112Z" fill="#76C35A"/>
  <path d="M87 112C96.1269 105.8 107.1 102.7 120 102.7C132.9 102.7 143.873 105.8 153 112V122H87V112Z" fill="#E24D35"/>
  <path d="M94 115C100.986 109.573 109.653 106.86 120 106.86C130.347 106.86 139.014 109.573 146 115V122H94V115Z" fill="#F0E0A4"/>
  <circle cx="100" cy="83" r="6" fill="#FFCE62"/>
  <circle cx="122" cy="78" r="6" fill="#FFCE62"/>
  <circle cx="142" cy="87" r="6" fill="#FFCE62"/>
</svg>
